<svg xmlns="http://www.w3.org/2000/svg" class="ill ill-quartier" viewBox="0 0 400 300" fill="none" stroke-width="4" stroke-linecap="round" stroke-linejoin="round">
  <g class="layer back">
    <g class="ink" stroke="#B8860B" stroke-width="3">
      <path class="hills" d="M0 176 Q50 156 104 168 T214 160 T318 166 T400 158"/>
      <path class="far-roofs" d="M120 168 L136 154 L152 168 M262 166 L274 156 L286 166 M300 166 V154 H322 V166"/>
    </g>
  </g>
  <g class="layer mid">
    <g class="ink" stroke="#F8DF7A">
      <path class="ground" d="M8 262 H392"/>
      <path class="house1-roof" d="M50 186 L96 150 L142 186"/>
      <rect class="house1" x="60" y="186" width="72" height="62"/>
      <rect class="house1-door" x="88" y="212" width="18" height="36" rx="2"/>
      <path class="hut-roof" d="M154 202 L188 156 L222 202 Z"/>
      <path class="hut-wall" d="M162 202 V248 M214 202 V248 M162 248 Q188 256 214 248"/>
      <path class="hut-door" d="M182 248 V224 Q188 216 194 224 V248"/>
      <path class="house2-roof" d="M236 172 H346"/>
      <rect class="house2" x="242" y="172" width="98" height="76"/>
      <rect class="house2-door" x="300" y="208" width="20" height="40" rx="2"/>
      <path class="street" d="M150 262 L178 248 M262 262 L232 248"/>
    </g>
  </g>
  <g class="lit windows" stroke="none">
    <rect x="68" y="196" width="14" height="12" fill="#F5C518" opacity="0.8"/>
    <rect x="112" y="196" width="14" height="12" fill="#F5C518" opacity="0.8"/>
    <rect x="254" y="186" width="18" height="14" fill="#F5C518" opacity="0.8"/>
    <rect x="254" y="214" width="18" height="14" fill="#F5C518" opacity="0.8"/>
    <circle cx="188" cy="190" r="5" fill="#F8DF7A"/>
  </g>
  <g class="layer front">
    <g class="ink" stroke="#F5C518">
      <path class="tree1-trunk" d="M26 262 V206"/>
      <path class="tree1" d="M26 210 C-4 210 -6 168 18 162 C20 138 52 134 58 156 C80 160 76 206 46 206 C40 212 32 212 26 210 Z"/>
      <path class="tree2-trunk" d="M370 262 V214"/>
      <path class="tree2" d="M370 216 C346 216 344 186 360 180 C360 160 388 158 392 176 C410 182 404 214 384 214 C380 218 374 218 370 216 Z"/>
      <path class="walker" d="M216 262 L222 240 L228 262 M222 240 V222"/>
      <circle class="walker-head" cx="222" cy="214" r="7"/>
    </g>
  </g>
</svg>
